<?xml version="1.0" standalone="no"?><!DOCTYPE svg PUBLIC "-//W3C//DTD SVG 1.1//EN" "http://www.w3.org/Graphics/SVG/1.1/DTD/svg11.dtd"><svg t="1680936586117" class="icon" viewBox="0 0 1024 1024" version="1.1" xmlns="http://www.w3.org/2000/svg" p-id="2523" xmlns:xlink="http://www.w3.org/1999/xlink" width="200" height="200"><path d="M868.173913 610.583851v57.242236c-6.360248 25.440994-6.360248 50.881988-12.720497 76.322981-19.080745 69.962733-63.602484 133.565217-114.484472 184.447205-44.521739 38.161491-89.043478 63.602484-146.285714 82.68323-19.080745 6.360248-38.161491 6.360248-57.242236 12.720497h-50.881988-6.360248c-50.881988 0-95.403727-19.080745-139.925466-38.161491-82.68323-50.881988-146.285714-120.84472-171.726708-209.888198-6.360248-19.080745-6.360248-38.161491-12.720497-63.602485v-44.521739c0-12.720497 6.360248-25.440994 6.360248-31.801242 6.360248-50.881988 31.801242-95.403727 57.242236-139.925466 25.440994-38.161491 57.242236-76.322981 82.68323-114.484472 25.440994-44.521739 38.161491-89.043478 31.801242-139.925466 0-12.720497 0-19.080745-6.360248-31.801242 63.602484 63.602484 69.962733 146.285714 63.602485 235.329192l6.360248-6.360248c50.881988-69.962733 76.322981-152.645963 57.242236-241.689441-12.720497-50.881988-31.801242-101.763975-69.962733-146.285714-19.080745-19.080745-38.161491-31.801242-57.242236-50.881988h25.440994C384.795031 0 416.596273 12.720497 448.397516 31.801242c69.962733 31.801242 127.204969 82.68323 171.726708 146.285715 69.962733 89.043478 114.484472 190.807453 120.84472 311.652173 6.360248 44.521739 0 89.043478-12.720497 133.565218-6.360248 19.080745-12.720497 31.801242-19.080745 50.881987 19.080745-12.720497 38.161491-25.440994 50.881987-44.521739 38.161491-57.242236 50.881988-120.84472 38.161491-197.167702 0 6.360248 6.360248 6.360248 6.360249 6.360249 25.440994 38.161491 38.161491 76.322981 50.881987 120.84472 6.360248 19.080745 12.720497 31.801242 12.720497 50.881988M512 508.819876s-6.360248 0 0 0c-6.360248 19.080745-6.360248 38.161491-6.360248 57.242236 0 25.440994-6.360248 57.242236-19.080746 82.68323-12.720497 31.801242-38.161491 50.881988-69.962733 63.602484-31.801242 19.080745-50.881988 38.161491-50.881987 76.322981s6.360248 69.962733 38.16149 95.403727c25.440994 25.440994 57.242236 31.801242 95.403727 25.440994 57.242236 0 95.403727-31.801242 114.484472-89.043478 12.720497-44.521739 12.720497-82.68323 0-127.204969-12.720497-57.242236-31.801242-108.124224-63.602484-159.006211-19.080745 0-31.801242-12.720497-38.161491-25.440994" fill="#FF6658" p-id="2524"></path></svg>